# xmcd
#
# Track frame offsets:
#	150
#	20552
#	41431
#	58050
#	75403
#	93788
#	117241
#	129179
#	153928
#	169970
#	179347
#	195900
#	213713
#	232562
#	250687
#	267554
#	289974
#	309034
#
# Disc length: 4351 seconds
#
# Revision: 1
# Processed by: cddbd v1.5.2PL0 Copyright (c) Steve Scherf et al.
# Submitted via: audiograbber 1.83.01
#
DISCID=e310fd12
DTITLE=Rhyme Asylum - Solitary Confinement
DYEAR=2010
DGENRE=Hip-Hop
TTITLE0=Solitary Confinement
TTITLE1=For The Hate
TTITLE2=This Is Where
TTITLE3=Divine Right Of Kings
TTITLE4=Next Level
TTITLE5=Event Horizon
TTITLE6=Axe Of Violence
TTITLE7=I Know
TTITLE8=Strange Deranged
TTITLE9=The 'N Word'
TTITLE10=The Art Of Raw
TTITLE11=Returmination
TTITLE12=Who Goes There
TTITLE13=Don't Wanna Be
TTITLE14=Straight Jacket Immortals
TTITLE15=Broken Window
TTITLE16=Open Mic Surgery
TTITLE17=Life Support
EXTD=
EXTT0=
EXTT1=
EXTT2=
EXTT3=
EXTT4=
EXTT5=
EXTT6=
EXTT7=
EXTT8=
EXTT9=
EXTT10=
EXTT11=
EXTT12=
EXTT13=
EXTT14=
EXTT15=
EXTT16=
EXTT17=
PLAYORDER=
